<svg xmlns="http://www.w3.org/2000/svg" width="34pt" height="34pt" viewBox="0 0 34 34"><path d="M17 8.813c-4.516 0-8.187 3.671-8.187 8.187s3.671 8.188 8.187 8.188 8.188-3.672 8.188-8.188S21.516 8.813 17 8.813M17 6.672c.387 0 .7-.317.7-.703v-3.39a.7.7 0 1 0-1.4 0v3.39c0 .386.313.703.7.703M17 27.328c-.387 0-.7.317-.7.703v3.39a.7.7 0 1 0 1.4 0v-3.39a.7.7 0 0 0-.7-.703M24.8 9.902a.7.7 0 0 0 .493-.207l2.402-2.398a.703.703 0 0 0-.992-.992l-2.398 2.402a.701.701 0 0 0 .496 1.195M8.707 24.305l-2.402 2.398a.703.703 0 0 0 0 .992.7.7 0 0 0 .496.203c.18 0 .36-.066.496-.203l2.398-2.402a.698.698 0 1 0-.988-.988M8.707 9.695a.7.7 0 0 0 .492.207.701.701 0 0 0 .496-1.195L7.297 6.305a.703.703 0 0 0-.992.992ZM25.293 24.305a.698.698 0 1 0-.988.988l2.398 2.402a.7.7 0 0 0 .496.203c.18 0 .36-.066.496-.203a.703.703 0 0 0 0-.992ZM6.672 17c0-.387-.317-.7-.703-.7h-3.39a.7.7 0 1 0 0 1.4h3.39a.7.7 0 0 0 .703-.7M31.422 16.3h-3.39a.7.7 0 0 0-.704.7c0 .387.317.7.703.7h3.39a.7.7 0 1 0 0-1.4" style="stroke:none;fill-rule:nonzero;fill:#f3cd00;fill-opacity:1"/></svg>