<svg xmlns="http://www.w3.org/2000/svg" width="34pt" height="34pt" viewBox="0 0 34 34"><path d="M25.191 15.973q0 .947-.21 1.832a5 5 0 0 0-1.7-.29 5.26 5.26 0 0 0-4.742 2.93 3.845 3.845 0 0 0-4.188 3.27c-3.222-1.102-5.542-4.16-5.542-7.742 0-4.508 3.68-8.188 8.191-8.188s8.191 3.68 8.191 8.188M17 5.645a.7.7 0 0 1-.7-.7V1.551a.699.699 0 1 1 1.4 0v3.394c0 .387-.313.7-.7.7M24.8 8.875a.69.69 0 0 1-.495-.207.7.7 0 0 1 0-.988l2.398-2.399a.703.703 0 0 1 .992 0 .7.7 0 0 1 0 .989l-2.402 2.398a.68.68 0 0 1-.492.207M6.8 26.875a.701.701 0 0 1-.495-1.195l2.402-2.403a.7.7 0 0 1 .988 0 .703.703 0 0 1 0 .993l-2.398 2.398a.7.7 0 0 1-.496.207M9.2 8.875a.68.68 0 0 1-.493-.207L6.305 6.27a.7.7 0 0 1 0-.989.703.703 0 0 1 .992 0L9.695 7.68a.7.7 0 0 1 0 .988.69.69 0 0 1-.496.207M5.969 16.676h-3.39a.703.703 0 0 1-.704-.703.7.7 0 0 1 .703-.7h3.39a.702.702 0 1 1 0 1.403M31.422 16.676h-3.39a.702.702 0 1 1 0-1.402h3.39a.7.7 0 0 1 .703.699.703.703 0 0 1-.703.703" style="stroke:none;fill-rule:nonzero;fill:#f3cd00;fill-opacity:1"/><path d="M23.273 18.914a3.89 3.89 0 0 0-3.84 3.273 2.45 2.45 0 0 0-3.73 2.094c0 1.059.652 1.95 1.586 2.293h6.898a3.88 3.88 0 0 0 2.973-3.773 3.89 3.89 0 0 0-3.887-3.887" style="stroke:none;fill-rule:nonzero;fill:#e4e9eb;fill-opacity:1"/></svg>