<svg xmlns="http://www.w3.org/2000/svg" width="34pt" height="34pt" viewBox="0 0 34 34"><path d="M15.41 14.563a5.4 5.4 0 0 0-4.73 2.812 7.5 7.5 0 0 1-.59-2.922c0-4.117 3.351-7.469 7.469-7.469 2.382 0 4.5 1.11 5.863 2.852a7.67 7.67 0 0 0-6.871 4.848 5.5 5.5 0 0 0-1.14-.121M17.563 5.285c.386 0 .699-.312.699-.7V1.552a.7.7 0 0 0-.7-.703c-.386 0-.699.316-.699.703v3.035c0 .387.313.7.7.7M27.184 4.836a.703.703 0 0 0-.993 0L24.043 6.98a.703.703 0 0 0 0 .993.7.7 0 0 0 .496.203c.18 0 .36-.067.496-.203l2.149-2.149a.7.7 0 0 0 0-.988M11.078 7.973a.703.703 0 0 0 0-.993L8.93 4.836a.698.698 0 1 0-.989.988l2.149 2.149a.7.7 0 0 0 .492.203c.18 0 .36-.067.496-.203M7.691 13.754H4.656a.7.7 0 0 0-.699.703c0 .387.313.7.7.7H7.69a.702.702 0 1 0 0-1.403" style="stroke:none;fill-rule:nonzero;fill:#f3cd00;fill-opacity:1"/><path d="M23.727 11.227c-3.153 0-5.758 2.316-6.239 5.32a3.94 3.94 0 0 0-2.074-.582 3.986 3.986 0 0 0-3.992 3.988 3.95 3.95 0 0 0 2.582 3.723h11.21a6.3 6.3 0 0 0 4.829-6.13c0-3.483-2.832-6.32-6.316-6.32" style="stroke:none;fill-rule:nonzero;fill:#e4e9eb;fill-opacity:1"/></svg>