<svg xmlns="http://www.w3.org/2000/svg" width="34pt" height="34pt" viewBox="0 0 34 34"><path d="M13.738 14.563c-1.738 0-3.289.832-4.277 2.12a7.3 7.3 0 0 1-.34-2.23c0-4.117 3.348-7.469 7.469-7.469 2.379 0 4.5 1.11 5.86 2.852-.13-.012-.27-.012-.4-.012a7.685 7.685 0 0 0-7.171 4.86 5.5 5.5 0 0 0-1.14-.121M16.59 5.285a.7.7 0 0 0 .703-.7V1.552a.702.702 0 1 0-1.402 0v3.035c0 .387.312.7.699.7M26.21 4.836a.7.7 0 0 0-.987 0L23.074 6.98a.703.703 0 0 0 0 .993.71.71 0 0 0 .992 0l2.145-2.149a.7.7 0 0 0 0-.988M10.11 7.973a.703.703 0 0 0 0-.993L7.96 4.836a.7.7 0 0 0-.987 0 .69.69 0 0 0 0 .988l2.144 2.149a.7.7 0 0 0 .496.203c.18 0 .36-.067.496-.203M6.723 13.754h-3.04a.702.702 0 0 0 0 1.402h3.04c.386 0 .699-.312.699-.699a.7.7 0 0 0-.7-.703" style="stroke:none;fill-rule:nonzero;fill:#f3cd00;fill-opacity:1"/><path d="M28.371 17.543v.133a4.5 4.5 0 0 0-1.242-.16 5.26 5.26 0 0 0-4.738 2.93 3.86 3.86 0 0 0-4.18 3.23h-5.883c-1.52-.551-2.578-2-2.578-3.723a3.98 3.98 0 0 1 3.988-3.988c.762 0 1.48.21 2.082.578.47-3 3.078-5.32 6.23-5.32 3.49 0 6.321 2.84 6.321 6.32" style="stroke:none;fill-rule:nonzero;fill:#e4e9eb;fill-opacity:1"/><path d="M27.125 18.914a3.89 3.89 0 0 0-3.836 3.273 2.4 2.4 0 0 0-1.277-.359 2.453 2.453 0 0 0-2.457 2.453 2.43 2.43 0 0 0 1.59 2.293h6.898a3.884 3.884 0 0 0 2.973-3.773 3.893 3.893 0 0 0-3.891-3.887" style="stroke:none;fill-rule:nonzero;fill:#e4e9eb;fill-opacity:1"/></svg>