<svg xmlns="http://www.w3.org/2000/svg" width="34pt" height="34pt" viewBox="0 0 34 34"><path d="M5.902 22.195H26.2c-.926.684-2.031 1.2-3.34 1.489l-.164.03H8.832l-.184-.046c-1.093-.273-2.02-.773-2.746-1.473M4.156 18.855h24.809a8.7 8.7 0 0 1-.91 1.52H4.594c-.18-.395-.301-.805-.39-1.246ZM25.914 7.012h-10.25a9.1 9.1 0 0 1 5.055-1.516h.031c.105 0 .2 0 .29.016.651.027 1.304.12 2.019.27 1.093.261 2.046.683 2.855 1.23M28.86 10.352H12.565a8.6 8.6 0 0 1 1.032-1.516h14.304c.38.469.7.988.957 1.516M29.828 13.695H5.508a5.8 5.8 0 0 1 1.258-1.277q.18-.133.367-.242h22.422c.136.5.23 1.015.273 1.52M29.86 15.516c-.047.5-.122 1.015-.243 1.52H4.141c.058-.52.195-1.036.379-1.52Zm0 0" style="stroke:none;fill-rule:nonzero;fill:#e4e9eb;fill-opacity:1"/><path d="M25.914 7.012h-10.25a9.1 9.1 0 0 1 5.055-1.516h.031c.105 0 .2 0 .29.016.651.027 1.304.12 2.019.27 1.093.261 2.046.683 2.855 1.23M28.86 10.352H12.565a8.6 8.6 0 0 1 1.032-1.516h14.304c.38.469.7.988.957 1.516M29.828 13.695H5.508a5.8 5.8 0 0 1 1.258-1.277q.18-.133.367-.242h22.422c.136.5.23 1.015.273 1.52M29.86 15.516c-.047.5-.122 1.015-.243 1.52H4.141c.058-.52.195-1.036.379-1.52ZM28.965 18.855a8.7 8.7 0 0 1-.91 1.52H4.598a5.7 5.7 0 0 1-.399-1.246l-.043-.274ZM26.2 22.195c-.927.684-2.036 1.2-3.34 1.489l-.165.03H8.832l-.184-.046c-1.09-.273-2.02-.773-2.746-1.473Zm0 0" style="stroke:none;fill-rule:nonzero;fill:#e4e9eb;fill-opacity:1"/></svg>