<svg xmlns="http://www.w3.org/2000/svg" width="34pt" height="34pt" viewBox="0 0 34 34"><path d="M15.41 14.602a5.4 5.4 0 0 0-4.73 2.808 7.5 7.5 0 0 1-.59-2.918c0-4.12 3.351-7.472 7.469-7.472 2.382 0 4.5 1.109 5.863 2.851a7.68 7.68 0 0 0-6.871 4.848 5.5 5.5 0 0 0-1.14-.117M17.563 5.324a.7.7 0 0 0 .699-.703V1.586a.699.699 0 1 0-1.399 0V4.62a.7.7 0 0 0 .7.703M27.184 4.871a.703.703 0 0 0-.993 0L24.043 7.02a.701.701 0 0 0 .992.988l2.149-2.149a.7.7 0 0 0 0-.988M11.078 8.008a.7.7 0 0 0 0-.988L8.93 4.87a.7.7 0 0 0-.989 0 .703.703 0 0 0 0 .992l2.149 2.145a.693.693 0 0 0 .988 0M7.691 13.793H4.656a.699.699 0 1 0 0 1.398h3.035a.7.7 0 0 0 .704-.699c0-.387-.317-.699-.704-.699" style="stroke:none;fill-rule:nonzero;fill:#f3cd00;fill-opacity:1"/><path d="M23.727 11.266c-3.153 0-5.758 2.312-6.239 5.32a3.986 3.986 0 0 0-6.066 3.402 3.95 3.95 0 0 0 2.582 3.727h11.21a6.31 6.31 0 0 0 4.829-6.133 6.32 6.32 0 0 0-6.316-6.316M17.797 33.113a.73.73 0 0 1-.352-.093.7.7 0 0 1-.25-.958l3.5-6a.7.7 0 0 1 .957-.253c.332.195.45.62.25.957l-3.5 6a.7.7 0 0 1-.605.347" style="stroke:none;fill-rule:nonzero;fill:#e4e9eb;fill-opacity:1"/></svg>