<svg xmlns="http://www.w3.org/2000/svg" width="34pt" height="34pt" viewBox="0 0 34 34"><path d="M15.41 14.594a5.39 5.39 0 0 0-4.73 2.812 7.5 7.5 0 0 1-.59-2.91c0-4.121 3.351-7.473 7.469-7.473 2.382 0 4.5 1.114 5.863 2.852-3.113.121-5.762 2.04-6.871 4.852a5.3 5.3 0 0 0-1.14-.133M17.563 5.328c.386 0 .699-.312.699-.7V1.595a.7.7 0 1 0-1.399 0v3.035c0 .387.313.7.7.7M27.184 4.875a.703.703 0 0 0-.993 0l-2.148 2.148a.701.701 0 0 0 .992.988l2.149-2.144a.703.703 0 0 0 0-.992M11.078 8.012a.7.7 0 0 0 0-.989L8.93 4.875a.7.7 0 0 0-.989 0 .703.703 0 0 0 0 .992l2.149 2.145c.133.14.316.207.492.207.18 0 .36-.067.496-.207M7.691 13.797H4.656a.699.699 0 1 0 0 1.398h3.035a.7.7 0 0 0 .704-.699c0-.387-.317-.7-.704-.7" style="stroke:none;fill-rule:nonzero;fill:#f3cd00;fill-opacity:1"/><path d="M23.727 11.266c-3.153 0-5.758 2.312-6.239 5.32a3.986 3.986 0 0 0-6.066 3.402 3.95 3.95 0 0 0 2.582 3.727h11.21a6.31 6.31 0 0 0 4.829-6.133 6.32 6.32 0 0 0-6.316-6.316M17.074 33.113a.7.7 0 0 1-.351-.093.7.7 0 0 1-.25-.958l3.5-6a.7.7 0 0 1 .957-.253.7.7 0 0 1 .25.957l-3.5 6a.7.7 0 0 1-.606.347M21.977 33.113a.699.699 0 0 1-.605-1.05l3.5-6a.7.7 0 0 1 .956-.254c.336.195.45.62.254.957l-3.5 6a.7.7 0 0 1-.605.347" style="stroke:none;fill-rule:nonzero;fill:#e4e9eb;fill-opacity:1"/><path d="M11.176 34a.704.704 0 0 1-.61-1.047l3.239-5.664-3.492.695a.69.69 0 0 1-.715-.293.68.68 0 0 1-.008-.77l5.5-8.503a.7.7 0 1 1 1.172.762l-4.598 7.11 3.375-.677a.702.702 0 0 1 .742 1.035l-4 7a.7.7 0 0 1-.605.352" style="stroke:none;fill-rule:nonzero;fill:#f3cd00;fill-opacity:1"/></svg>