<svg xmlns="http://www.w3.org/2000/svg" width="34pt" height="34pt" viewBox="0 0 34 34"><path d="M15.41 14.395a5.39 5.39 0 0 0-4.73 2.808 7.5 7.5 0 0 1-.59-2.91c0-4.121 3.351-7.469 7.469-7.469 2.382 0 4.5 1.11 5.863 2.848-3.113.121-5.762 2.039-6.871 4.851a5.3 5.3 0 0 0-1.14-.128M17.563 5.125c.386 0 .699-.312.699-.7V1.392a.7.7 0 0 0-.7-.703c-.386 0-.699.316-.699.703v3.035c0 .386.313.699.7.699M27.184 4.672a.71.71 0 0 0-.993 0L24.043 6.82a.7.7 0 0 0 0 .989c.137.14.316.207.496.207s.36-.067.496-.207l2.149-2.145a.703.703 0 0 0 0-.992M11.078 7.813a.703.703 0 0 0 0-.993L8.93 4.672a.7.7 0 0 0-.989 0 .703.703 0 0 0 0 .992l2.149 2.149a.7.7 0 0 0 .492.203c.18 0 .36-.067.496-.203M7.691 13.594H4.656a.699.699 0 1 0 0 1.398h3.035a.7.7 0 0 0 .704-.699c0-.387-.317-.7-.704-.7" style="stroke:none;fill-rule:nonzero;fill:#f3cd00;fill-opacity:1"/><path d="M23.727 11.063c-3.153 0-5.758 2.312-6.239 5.32a3.987 3.987 0 0 0-6.066 3.406 3.95 3.95 0 0 0 2.582 3.723h11.21a6.31 6.31 0 0 0 4.829-6.133 6.32 6.32 0 0 0-6.316-6.317M22.242 30.406l-1.707-.996 1.707-.992a.706.706 0 0 0 .258-.957.7.7 0 0 0-.953-.258l-1.711.996v-1.988a.695.695 0 1 0-1.39 0v1.988l-1.712-.996a.697.697 0 0 0-.949.258.705.705 0 0 0 .254.957l1.711.992-1.71.996a.7.7 0 0 0 .347 1.305.7.7 0 0 0 .347-.094l1.711-.992v1.984c0 .387.313.703.696.703a.7.7 0 0 0 .695-.703v-1.984l1.71.992a.694.694 0 0 0 .953-.258.7.7 0 0 0-.257-.953M13.945 30.406l-1.71-.996 1.71-.992a.701.701 0 0 0-.7-1.215l-1.706.996v-1.988a.699.699 0 1 0-1.394 0v1.988l-1.711-.996a.7.7 0 0 0-.95.258.705.705 0 0 0 .254.957l1.711.992-1.71.996a.7.7 0 0 0 .347 1.305.7.7 0 0 0 .348-.094l1.71-.992v1.984c0 .387.313.703.696.703.387 0 .7-.316.7-.703v-1.984l1.706.992q.17.094.348.094a.7.7 0 0 0 .352-1.305M24.691 33.313a.7.7 0 0 1-.351-.098.7.7 0 0 1-.254-.957l3.5-6a.7.7 0 0 1 1.21.707l-3.5 6a.7.7 0 0 1-.605.347" style="stroke:none;fill-rule:nonzero;fill:#e4e9eb;fill-opacity:1"/></svg>