<svg xmlns="http://www.w3.org/2000/svg" width="34pt" height="34pt" viewBox="0 0 34 34"><path d="M14.781 14.395a5.39 5.39 0 0 0-4.73 2.808 7.5 7.5 0 0 1-.59-2.91c0-4.121 3.351-7.469 7.473-7.469 2.378 0 4.5 1.11 5.859 2.848a7.66 7.66 0 0 0-6.871 4.851 5.3 5.3 0 0 0-1.14-.128M16.934 5.125c.386 0 .699-.312.699-.7V1.392a.7.7 0 0 0-.7-.703c-.386 0-.699.316-.699.703v3.035c0 .386.313.699.7.699M26.555 4.672a.71.71 0 0 0-.992 0L23.418 6.82a.7.7 0 0 0 0 .989c.137.14.316.207.492.207.18 0 .36-.067.496-.207l2.149-2.145a.703.703 0 0 0 0-.992M10.45 7.813a.703.703 0 0 0 0-.993L8.304 4.672a.703.703 0 0 0-.992.992L9.46 7.813a.7.7 0 0 0 .496.203.7.7 0 0 0 .492-.203M7.066 13.594H4.027a.699.699 0 1 0 0 1.398h3.04a.699.699 0 1 0 0-1.398" style="stroke:none;fill-rule:nonzero;fill:#f3cd00;fill-opacity:1"/><path d="M23.098 11.063c-3.153 0-5.758 2.312-6.239 5.32a3.984 3.984 0 0 0-6.062 3.406 3.95 3.95 0 0 0 2.578 3.723H24.59a6.31 6.31 0 0 0 4.828-6.133c0-3.484-2.836-6.317-6.32-6.317M22.023 30.406l-1.71-.996 1.71-.992a.705.705 0 0 0 .254-.957.697.697 0 0 0-.949-.258l-1.71.996v-1.988c0-.387-.313-.7-.696-.7a.7.7 0 0 0-.695.7v1.988l-1.711-.996a.697.697 0 0 0-.95.258.705.705 0 0 0 .254.957l1.711.992-1.71.996a.7.7 0 0 0 .347 1.305.7.7 0 0 0 .348-.094l1.71-.992v1.984c0 .387.313.703.696.703a.7.7 0 0 0 .695-.703v-1.984l1.711.992a.687.687 0 0 0 .95-.258.7.7 0 0 0-.255-.953M30.324 30.406l-1.71-.996 1.71-.992a.705.705 0 0 0 .254-.957.697.697 0 0 0-.95-.258l-1.71.996v-1.988a.695.695 0 1 0-1.39 0v1.988l-1.712-.996a.7.7 0 0 0-.953.258.706.706 0 0 0 .258.957l1.711.992-1.71.996a.698.698 0 1 0 .695 1.21l1.71-.991v1.984c0 .387.309.703.696.703a.7.7 0 0 0 .695-.703v-1.984l1.71.992a.694.694 0 0 0 .95-.258.7.7 0 0 0-.254-.953M13.723 30.406l-1.707-.996 1.707-.992a.706.706 0 0 0 .257-.957.7.7 0 0 0-.953-.258l-1.71.996v-1.988a.695.695 0 1 0-1.391 0v1.988l-1.711-.996a.697.697 0 0 0-.95.258.705.705 0 0 0 .255.957l1.71.992-1.71.996a.7.7 0 0 0 .347 1.305.7.7 0 0 0 .348-.094l1.71-.992v1.984c0 .387.313.703.696.703a.7.7 0 0 0 .695-.703v-1.984l1.711.992a.694.694 0 0 0 .953-.258.7.7 0 0 0-.257-.953" style="stroke:none;fill-rule:nonzero;fill:#e4e9eb;fill-opacity:1"/></svg>