<svg xmlns="http://www.w3.org/2000/svg" width="34pt" height="34pt" viewBox="0 0 34 34"><path d="M7.598 33.098a.702.702 0 0 1-.605-1.05l3.5-6.001a.706.706 0 0 1 .96-.254.7.7 0 0 1 .25.957l-3.5 6a.69.69 0 0 1-.605.348M12.5 33.098a.73.73 0 0 1-.355-.094.7.7 0 0 1-.25-.957l3.5-6a.697.697 0 1 1 1.207.703l-3.5 6a.69.69 0 0 1-.602.348M17.398 33.098a.702.702 0 0 1-.605-1.05l3.5-6.001a.706.706 0 0 1 .96-.254.7.7 0 0 1 .25.957l-3.5 6a.69.69 0 0 1-.605.348M19.992 8.45a7.68 7.68 0 0 0-7.172 4.855 5.396 5.396 0 0 0-6.531 5.27c0 2.241 1.406 4.269 3.496 5.038l.235.086h11.628l.16-.039a7.68 7.68 0 0 0 5.903-7.492c0-4.258-3.461-7.719-7.719-7.719" style="stroke:none;fill-rule:nonzero;fill:#e4e9eb;fill-opacity:1"/></svg>