<svg xmlns="http://www.w3.org/2000/svg" width="34pt" height="34pt" viewBox="0 0 34 34"><path d="m15.652 30.594-1.71-.996 1.71-.993a.705.705 0 0 0 .254-.957.69.69 0 0 0-.949-.253l-1.71.992v-1.989a.695.695 0 1 0-1.39 0l-.002 1.989-1.71-.992a.697.697 0 1 0-.696 1.21l1.707.993-1.707.996a.698.698 0 1 0 .696 1.21l1.71-.991v1.984c0 .39.31.703.696.703a.7.7 0 0 0 .695-.703v-1.984l1.711.992a.694.694 0 0 0 .95-.258.7.7 0 0 0-.255-.953M18.098 33.5a.699.699 0 0 1-.602-1.055l3.5-6a.7.7 0 0 1 1.207.707l-3.5 6a.7.7 0 0 1-.605.348M19.992 8.45a7.68 7.68 0 0 0-7.172 4.855 5.396 5.396 0 0 0-6.531 5.27c0 2.241 1.406 4.269 3.496 5.038l.235.086h11.628l.16-.039a7.68 7.68 0 0 0 5.903-7.492c0-4.258-3.461-7.719-7.719-7.719" style="stroke:none;fill-rule:nonzero;fill:#e4e9eb;fill-opacity:1"/></svg>