<svg xmlns="http://www.w3.org/2000/svg" width="34pt" height="34pt" viewBox="0 0 34 34"><path d="m23.05 30.594-1.706-.996 1.707-.993a.697.697 0 1 0-.695-1.21l-1.711.992v-1.989a.695.695 0 1 0-1.391 0v1.989l-1.711-.992a.69.69 0 0 0-.95.253.705.705 0 0 0 .255.957l1.71.993-1.71.996a.7.7 0 0 0 .347 1.304.7.7 0 0 0 .348-.093l1.71-.992v1.984a.696.696 0 1 0 1.39 0l.002-1.984 1.71.992a.694.694 0 0 0 .953-.258.7.7 0 0 0-.257-.953M14.754 30.594l-1.711-.996 1.71-.993a.705.705 0 0 0 .255-.957.697.697 0 0 0-.953-.253l-1.707.992v-1.989a.699.699 0 1 0-1.395 0v1.989l-1.71-.992a.693.693 0 0 0-.95.253.705.705 0 0 0 .254.957l1.71.993-1.71.996a.7.7 0 0 0 .348 1.304.7.7 0 0 0 .347-.093l1.711-.992v1.984c0 .39.313.703.695.703a.7.7 0 0 0 .7-.703v-1.984l1.707.992q.17.093.347.093a.7.7 0 0 0 .352-1.305M19.992 8.45a7.68 7.68 0 0 0-7.172 4.855 5.396 5.396 0 0 0-6.531 5.27c0 2.241 1.406 4.269 3.496 5.038l.235.086h11.628l.16-.039a7.68 7.68 0 0 0 5.903-7.492c0-4.258-3.461-7.719-7.719-7.719" style="stroke:none;fill-rule:nonzero;fill:#e4e9eb;fill-opacity:1"/></svg>