<svg xmlns="http://www.w3.org/2000/svg" width="34pt" height="34pt" viewBox="0 0 34 34"><path d="M28.223 22.602a1.4 1.4 0 0 0-1.215-.782 15 15 0 0 1-.969-.047c-6.418-.558-11.184-6.207-10.625-12.59.07-.831.234-1.683.488-2.527.149-.5.004-1.043-.37-1.406a1.4 1.4 0 0 0-.973-.39c-.149 0-.301.023-.446.07A12.46 12.46 0 0 0 5.68 15.656c-.29 3.301.73 6.52 2.867 9.059a12.38 12.38 0 0 0 8.45 4.379c.362.031.737.05 1.1.05 3.997 0 7.641-1.859 10-5.101a1.39 1.39 0 0 0 .126-1.441" style="stroke:none;fill-rule:nonzero;fill:#f3cd00;fill-opacity:1"/></svg>