<svg xmlns="http://www.w3.org/2000/svg" width="34pt" height="34pt" viewBox="0 0 34 34"><path d="M29.082 23.04c-2.36 3.241-6 5.1-10 5.1-.36 0-.738-.011-1.098-.05a12.4 12.4 0 0 1-3.12-.692 5.24 5.24 0 0 0 2.64-4.57 5.293 5.293 0 0 0-5.29-5.289 5.28 5.28 0 0 0-4.702 2.852c-.719-1.801-1.02-3.75-.848-5.73A12.48 12.48 0 0 1 15.102 3.93c.14-.051.293-.07.441-.07.36 0 .71.128.969.39.383.36.523.91.37 1.41-.25.84-.41 1.692-.48 2.52-.558 6.379 4.2 12.03 10.621 12.601.309.02.641.028.97.04.519.019.991.32 1.222.78.226.47.18 1.02-.133 1.438" style="stroke:none;fill-rule:nonzero;fill:#f3cd00;fill-opacity:1"/><path d="M12.215 18.938a3.895 3.895 0 0 0-3.84 3.277 2.4 2.4 0 0 0-1.277-.363 2.453 2.453 0 0 0-2.453 2.457 2.43 2.43 0 0 0 1.585 2.293h6.903a3.885 3.885 0 0 0 2.969-3.774 3.893 3.893 0 0 0-3.887-3.89" style="stroke:none;fill-rule:nonzero;fill:#e4e9eb;fill-opacity:1"/></svg>