<svg xmlns="http://www.w3.org/2000/svg" width="34pt" height="34pt" viewBox="0 0 34 34"><path d="M10.492 14.602c-1.539 0-2.93.648-3.91 1.687a10.1 10.1 0 0 1-.309-3.527 10.25 10.25 0 0 1 6.938-8.82c.152-.051.3-.07.453-.07.348 0 .7.128.969.39.37.36.52.91.37 1.41a9 9 0 0 0-.382 1.957 9 9 0 0 0 .313 3.273 7.62 7.62 0 0 0-3.301 3.817 5.6 5.6 0 0 0-1.14-.117" style="stroke:none;fill-rule:nonzero;fill:#f3cd00;fill-opacity:1"/><path d="M25.121 17.582v.129c-.398-.11-.82-.16-1.25-.16a5.25 5.25 0 0 0-4.726 2.93 3.862 3.862 0 0 0-4.191 3.23H9.081c-1.52-.55-2.578-2-2.578-3.719A3.98 3.98 0 0 1 10.492 16c.762 0 1.469.21 2.07.582.481-3 3.09-5.32 6.239-5.32 3.492 0 6.32 2.84 6.32 6.32" style="stroke:none;fill-rule:nonzero;fill:#e4e9eb;fill-opacity:1"/><path d="M23.879 18.95a3.89 3.89 0 0 0-3.84 3.273 2.454 2.454 0 0 0-3.734 2.098c0 1.054.656 1.945 1.59 2.288h6.898a3.88 3.88 0 0 0 2.973-3.773 3.89 3.89 0 0 0-3.887-3.887" style="stroke:none;fill-rule:nonzero;fill:#e4e9eb;fill-opacity:1"/></svg>