<svg xmlns="http://www.w3.org/2000/svg" width="34pt" height="34pt" viewBox="0 0 34 34"><path d="M27.71 16.121a7.6 7.6 0 0 1-.8 3.418 5.28 5.28 0 0 0-4.172-2.05 5.24 5.24 0 0 0-4.726 2.94c-.133-.019-.25-.019-.383-.019a3.87 3.87 0 0 0-3.809 3.238h-3.8l-.23-.078c-2.099-.77-3.5-2.8-3.5-5.039a5.4 5.4 0 0 1 6.53-5.27 7.69 7.69 0 0 1 7.168-4.863c4.262 0 7.723 3.473 7.723 7.723" style="stroke:none;fill-rule:nonzero;fill:#e4e9eb;fill-opacity:1"/><path d="M22.746 18.887a3.89 3.89 0 0 0-3.84 3.273 2.4 2.4 0 0 0-1.277-.36 2.453 2.453 0 0 0-2.457 2.454 2.43 2.43 0 0 0 1.59 2.293h6.898a3.884 3.884 0 0 0 2.973-3.774 3.89 3.89 0 0 0-3.887-3.886" style="stroke:none;fill-rule:nonzero;fill:#e4e9eb;fill-opacity:1"/></svg>