<svg xmlns="http://www.w3.org/2000/svg" width="34pt" height="34pt" viewBox="0 0 34 34"><path d="M5.902 22.293H26.2c-.926.684-2.031 1.2-3.34 1.488l-.164.032H8.832l-.184-.047c-1.093-.274-2.02-.774-2.746-1.473M4.156 18.953h24.809a8.7 8.7 0 0 1-.91 1.52H4.594c-.18-.395-.301-.805-.39-1.246ZM25.914 7.11h-10.25a9.08 9.08 0 0 1 5.055-1.516h.031c.105 0 .2 0 .29.011.651.032 1.304.122 2.019.274a8.6 8.6 0 0 1 2.855 1.23M28.86 10.45H12.565a8.6 8.6 0 0 1 1.032-1.516h14.304c.38.468.7.984.957 1.515M29.828 13.79H5.508a5.9 5.9 0 0 1 1.258-1.274c.12-.09.242-.168.367-.243h22.422c.136.5.23 1.016.273 1.516M29.86 15.613c-.047.5-.122 1.016-.243 1.516H4.141a6.3 6.3 0 0 1 .379-1.516Zm0 0" style="stroke:none;fill-rule:nonzero;fill:#e4e9eb;fill-opacity:1"/><path d="M25.914 7.11h-10.25a9.08 9.08 0 0 1 5.055-1.516h.031c.105 0 .2 0 .29.011.651.032 1.304.122 2.019.274a8.6 8.6 0 0 1 2.855 1.23M28.86 10.45H12.565a8.6 8.6 0 0 1 1.032-1.516h14.304c.38.468.7.984.957 1.515M29.828 13.79H5.508a5.9 5.9 0 0 1 1.258-1.274c.12-.09.242-.168.367-.243h22.422c.136.5.23 1.016.273 1.516M29.86 15.613c-.047.5-.122 1.016-.243 1.516H4.141a6.3 6.3 0 0 1 .379-1.516ZM28.965 18.953a8.7 8.7 0 0 1-.91 1.52H4.598a5.7 5.7 0 0 1-.399-1.246l-.043-.274ZM26.2 22.293c-.927.684-2.036 1.2-3.34 1.488l-.165.032H8.832l-.184-.047c-1.09-.274-2.02-.774-2.746-1.473Zm0 0" style="stroke:none;fill-rule:nonzero;fill:#e4e9eb;fill-opacity:1"/></svg>