<svg xmlns="http://www.w3.org/2000/svg" width="34pt" height="34pt" viewBox="0 0 34 34"><path d="M12.094 14.578a5.39 5.39 0 0 0-3.903 1.684 10 10 0 0 1-.308-3.524 10.22 10.22 0 0 1 6.93-8.816c.148-.05.3-.07.449-.07a1.394 1.394 0 0 1 1.34 1.796c-.2.653-.32 1.32-.38 1.961a8.9 8.9 0 0 0 .31 3.27 7.64 7.64 0 0 0-3.302 3.82 5.5 5.5 0 0 0-1.136-.12" style="stroke:none;fill-rule:nonzero;fill:#f3cd00;fill-opacity:1"/><path d="M20.406 11.246a6.32 6.32 0 0 0-6.238 5.32 3.9 3.9 0 0 0-2.074-.586 3.984 3.984 0 0 0-3.992 3.989 3.95 3.95 0 0 0 2.582 3.726h11.21a6.31 6.31 0 0 0 4.829-6.132 6.32 6.32 0 0 0-6.317-6.317M7.977 33.094a.7.7 0 0 1-.352-.098.697.697 0 0 1-.254-.957l3.5-6a.7.7 0 1 1 1.21.707l-3.499 6a.7.7 0 0 1-.605.348M12.879 33.094a.699.699 0 0 1-.605-1.055l3.5-6a.7.7 0 0 1 .956-.25c.332.195.45.621.25.957l-3.5 6a.7.7 0 0 1-.601.348M17.777 33.094a.7.7 0 0 1-.351-.098.697.697 0 0 1-.254-.957l3.5-6a.7.7 0 1 1 1.21.707l-3.5 6a.7.7 0 0 1-.605.348" style="stroke:none;fill-rule:nonzero;fill:#e4e9eb;fill-opacity:1"/></svg>