<svg xmlns="http://www.w3.org/2000/svg" width="34pt" height="34pt" viewBox="0 0 34 34"><path d="M12.441 14.578a5.38 5.38 0 0 0-3.898 1.684 9.9 9.9 0 0 1-.313-3.524 10.23 10.23 0 0 1 6.93-8.816c.152-.05.3-.07.453-.07.348 0 .7.128.969.386.379.364.52.91.371 1.41-.2.653-.32 1.32-.383 1.961a9 9 0 0 0 .313 3.27 7.64 7.64 0 0 0-3.301 3.82 5.5 5.5 0 0 0-1.14-.12" style="stroke:none;fill-rule:nonzero;fill:#f3cd00;fill-opacity:1"/><path d="M20.754 11.246c-3.152 0-5.758 2.313-6.238 5.32a3.9 3.9 0 0 0-2.075-.586 3.983 3.983 0 0 0-3.988 3.989 3.955 3.955 0 0 0 2.578 3.726h11.215a6.31 6.31 0 0 0 4.828-6.132c0-3.485-2.836-6.317-6.32-6.317M13.48 30.586l-1.71-.992 1.71-.992a.705.705 0 0 0 .254-.957.693.693 0 0 0-.949-.258l-1.71.992v-1.984a.695.695 0 1 0-1.39 0l-.001 1.984-1.711-.992a.699.699 0 1 0-.696 1.215l1.707.992-1.707.992a.703.703 0 0 0-.257.957.694.694 0 0 0 .953.258l1.71-.996v1.988a.695.695 0 1 0 1.391 0v-1.988l1.711.996a.694.694 0 0 0 .95-.258.705.705 0 0 0-.255-.957M15.926 33.492a.73.73 0 0 1-.352-.094.7.7 0 0 1-.25-.957l3.5-6a.7.7 0 0 1 .957-.253.7.7 0 0 1 .25.957l-3.5 6a.69.69 0 0 1-.605.347M20.828 33.492a.699.699 0 0 1-.605-1.05l3.5-6a.7.7 0 0 1 .957-.255c.336.196.449.625.254.958l-3.5 6a.7.7 0 0 1-.606.347" style="stroke:none;fill-rule:nonzero;fill:#e4e9eb;fill-opacity:1"/></svg>