<svg xmlns="http://www.w3.org/2000/svg" width="34pt" height="34pt" viewBox="0 0 34 34"><path d="M13.695 14.578a5.38 5.38 0 0 0-3.898 1.684 9.9 9.9 0 0 1-.313-3.524 10.23 10.23 0 0 1 6.93-8.816c.152-.05.3-.07.453-.07.348 0 .7.128.969.386.379.364.52.91.371 1.41-.2.653-.32 1.32-.383 1.961a9 9 0 0 0 .313 3.27 7.64 7.64 0 0 0-3.301 3.82 5.5 5.5 0 0 0-1.14-.12" style="stroke:none;fill-rule:nonzero;fill:#f3cd00;fill-opacity:1"/><path d="M22.008 11.246c-3.153 0-5.758 2.313-6.238 5.32a3.9 3.9 0 0 0-2.075-.586 3.983 3.983 0 0 0-3.988 3.989 3.955 3.955 0 0 0 2.578 3.726H23.5a6.31 6.31 0 0 0 4.828-6.132c0-3.485-2.836-6.317-6.32-6.317M20.527 30.586l-1.71-.992 1.71-.992a.705.705 0 0 0 .254-.957.697.697 0 0 0-.953-.258l-1.707.992v-1.984a.698.698 0 1 0-1.394 0v1.984l-1.711-.992a.694.694 0 0 0-.95.258.705.705 0 0 0 .254.957l1.711.992-1.71.992a.705.705 0 0 0-.255.957.694.694 0 0 0 .95.258l1.71-.996v1.988a.699.699 0 1 0 1.395 0v-1.988l1.707.996q.17.094.352.094a.69.69 0 0 0 .601-.352.705.705 0 0 0-.254-.957M12.227 30.586l-1.711-.992 1.71-.992a.705.705 0 0 0 .254-.957.693.693 0 0 0-.949-.258l-1.71.992v-1.984a.695.695 0 1 0-1.39 0l-.001 1.984-1.711-.992a.699.699 0 1 0-.696 1.215l1.707.992-1.707.992a.703.703 0 0 0-.257.957.694.694 0 0 0 .953.258l1.71-.996v1.988a.695.695 0 1 0 1.391 0v-1.988l1.711.996a.694.694 0 0 0 .95-.258.705.705 0 0 0-.254-.957M22.973 33.492a.702.702 0 0 1-.605-1.05l3.5-6a.706.706 0 0 1 .96-.255.7.7 0 0 1 .25.958l-3.5 6a.69.69 0 0 1-.605.347" style="stroke:none;fill-rule:nonzero;fill:#e4e9eb;fill-opacity:1"/></svg>