<svg xmlns="http://www.w3.org/2000/svg" width="34pt" height="34pt" viewBox="0 0 34 34"><path d="M11.813 14.578a5.39 5.39 0 0 0-3.903 1.684 10 10 0 0 1-.308-3.524 10.22 10.22 0 0 1 6.93-8.816c.148-.05.3-.07.448-.07a1.394 1.394 0 0 1 1.34 1.796c-.199.653-.32 1.32-.379 1.961a8.9 8.9 0 0 0 .309 3.27 7.64 7.64 0 0 0-3.3 3.82 5.5 5.5 0 0 0-1.137-.12" style="stroke:none;fill-rule:nonzero;fill:#f3cd00;fill-opacity:1"/><path d="M20.125 11.246a6.32 6.32 0 0 0-6.238 5.32 3.9 3.9 0 0 0-2.078-.586A3.983 3.983 0 0 0 7.82 19.97a3.95 3.95 0 0 0 2.582 3.726h11.211a6.31 6.31 0 0 0 4.828-6.132 6.32 6.32 0 0 0-6.316-6.317M19.148 30.586l-1.71-.992 1.71-.992a.705.705 0 0 0 .254-.957.693.693 0 0 0-.949-.258l-1.71.992v-1.984c0-.387-.313-.7-.696-.7a.7.7 0 0 0-.695.7v1.984l-1.711-.992a.693.693 0 0 0-.95.258.705.705 0 0 0 .254.957l1.711.992-1.71.992a.705.705 0 0 0-.255.957.69.69 0 0 0 .95.258l1.71-.996v1.988c0 .387.313.7.696.7a.7.7 0 0 0 .695-.7v-1.988l1.711.996a.687.687 0 0 0 .95-.258.705.705 0 0 0-.255-.957" style="stroke:none;fill-rule:nonzero;fill:#e4e9eb;fill-opacity:1"/></svg>