<svg xmlns="http://www.w3.org/2000/svg" width="34pt" height="34pt" viewBox="0 0 34 34"><path d="M20.688 8.45a7.68 7.68 0 0 0-7.172 4.855 5.396 5.396 0 0 0-6.531 5.27c0 2.241 1.406 4.269 3.495 5.038l.235.086h11.629l.16-.039a7.68 7.68 0 0 0 5.902-7.492c0-4.258-3.46-7.719-7.718-7.719M13.195 33.098a.699.699 0 0 1-.605-1.05l3.5-6.001a.7.7 0 0 1 .957-.254c.336.195.45.625.254.957l-3.5 6a.7.7 0 0 1-.606.348M18.094 33.098a.7.7 0 0 1-.352-.094.7.7 0 0 1-.25-.957l3.5-6a.7.7 0 0 1 .957-.254.7.7 0 0 1 .25.957l-3.5 6a.69.69 0 0 1-.605.348" style="stroke:none;fill-rule:nonzero;fill:#e4e9eb;fill-opacity:1"/><path d="M7.293 34a.697.697 0 0 1-.605-1.047l3.238-5.664-3.492.695a.697.697 0 0 1-.727-1.062l5.5-8.504a.7.7 0 0 1 1.176.762L7.78 26.29l3.375-.677a.701.701 0 0 1 .746 1.035l-4 7a.71.71 0 0 1-.609.352" style="stroke:none;fill-rule:nonzero;fill:#f3cd00;fill-opacity:1"/></svg>