<svg xmlns="http://www.w3.org/2000/svg" width="34pt" height="34pt" viewBox="0 0 34 34"><path d="m20.246 30.594-1.71-.996 1.71-.993a.705.705 0 0 0 .254-.957.69.69 0 0 0-.95-.253l-1.71.992v-1.989c0-.386-.313-.699-.695-.699a.7.7 0 0 0-.696.7v1.988l-1.71-.992a.69.69 0 0 0-.95.253.705.705 0 0 0 .254.957l1.71.993-1.71.996a.7.7 0 0 0 .348 1.304.7.7 0 0 0 .347-.093l1.711-.992v1.984c0 .39.313.703.696.703a.7.7 0 0 0 .695-.703v-1.984l1.71.992a.687.687 0 0 0 .95-.258.7.7 0 0 0-.254-.953M11.945 30.594l-1.707-.996 1.707-.993a.697.697 0 1 0-.695-1.21l-1.71.992v-1.989a.695.695 0 1 0-1.392 0v1.989l-1.71-.992a.69.69 0 0 0-.95.253.705.705 0 0 0 .254.957l1.711.993-1.71.996a.7.7 0 0 0 .347 1.304.7.7 0 0 0 .348-.093l1.71-.992v1.984a.696.696 0 1 0 1.39 0l.001-1.984 1.711.992a.694.694 0 0 0 .953-.258.7.7 0 0 0-.258-.953M22.695 33.5a.7.7 0 0 1-.351-.098.697.697 0 0 1-.254-.957l3.5-6a.7.7 0 0 1 1.21.707l-3.5 6a.71.71 0 0 1-.605.348M20.887 8.45a7.68 7.68 0 0 0-7.172 4.855 5.396 5.396 0 0 0-6.531 5.27c0 2.241 1.406 4.269 3.496 5.038l.234.086h11.629l.16-.039a7.68 7.68 0 0 0 5.902-7.492c0-4.258-3.46-7.719-7.718-7.719" style="stroke:none;fill-rule:nonzero;fill:#e4e9eb;fill-opacity:1"/></svg>