<svg xmlns="http://www.w3.org/2000/svg" width="34pt" height="34pt" viewBox="0 0 34 34"><path d="m18.953 30.594-1.71-.996 1.71-.993a.705.705 0 0 0 .254-.957.69.69 0 0 0-.95-.253l-1.71.992v-1.989a.698.698 0 1 0-1.395 0v1.989l-1.71-.992a.693.693 0 0 0-.95.253.7.7 0 0 0 .258.957l1.707.993-1.707.996a.698.698 0 0 0 .691 1.21l1.711-.991v1.984a.7.7 0 0 0 .7.703.7.7 0 0 0 .695-.703v-1.984l1.71.992a.694.694 0 0 0 .95-.258.7.7 0 0 0-.254-.953M19.992 8.45a7.68 7.68 0 0 0-7.172 4.855 5.396 5.396 0 0 0-6.531 5.27c0 2.241 1.406 4.269 3.496 5.038l.235.086h11.628l.16-.039a7.68 7.68 0 0 0 5.903-7.492c0-4.258-3.461-7.719-7.719-7.719" style="stroke:none;fill-rule:nonzero;fill:#e4e9eb;fill-opacity:1"/></svg>