<svg xmlns="http://www.w3.org/2000/svg" width="34pt" height="34pt" viewBox="0 0 34 34"><path d="m19.996 30.594-1.71-.996 1.71-.993a.71.71 0 0 0 .258-.957.697.697 0 0 0-.953-.253l-1.711.992v-1.989c0-.386-.313-.699-.695-.699a.7.7 0 0 0-.696.7v1.988l-1.71-.992a.69.69 0 0 0-.95.253.705.705 0 0 0 .254.957l1.71.993-1.71.996a.7.7 0 0 0 .348 1.304.7.7 0 0 0 .347-.093l1.711-.992v1.984c0 .39.313.703.696.703a.7.7 0 0 0 .695-.703v-1.984l1.71.992a.694.694 0 0 0 .953-.258.705.705 0 0 0-.257-.953M28.297 30.594l-1.711-.996 1.71-.993a.705.705 0 0 0 .255-.957.69.69 0 0 0-.95-.253l-1.71.992v-1.989a.695.695 0 1 0-1.39 0l-.001 1.989-1.71-.992a.69.69 0 0 0-.95.253.7.7 0 0 0 .254.957l1.71.993-1.71.996a.697.697 0 0 0-.254.953.687.687 0 0 0 .95.258l1.71-.992v1.984c0 .39.309.703.695.703a.7.7 0 0 0 .696-.703v-1.984l1.71.992a.692.692 0 0 0 .95-.258.7.7 0 0 0-.254-.953M11.695 30.594l-1.707-.996 1.707-.993a.706.706 0 0 0 .258-.957.697.697 0 0 0-.953-.253l-1.707.992v-1.989a.699.699 0 1 0-1.395 0v1.989l-1.71-.992a.69.69 0 0 0-.95.253.705.705 0 0 0 .254.957l1.711.993-1.71.996a.7.7 0 0 0 .347 1.304.7.7 0 0 0 .348-.093l1.71-.992v1.984c0 .39.313.703.696.703a.7.7 0 0 0 .699-.703v-1.984l1.707.992a.694.694 0 0 0 .953-.258.7.7 0 0 0-.258-.953M21.137 8.45a7.68 7.68 0 0 0-7.172 4.855 5.396 5.396 0 0 0-6.531 5.27c0 2.241 1.406 4.269 3.496 5.038l.234.086h11.629l.16-.039a7.68 7.68 0 0 0 5.902-7.492c0-4.258-3.46-7.719-7.718-7.719" style="stroke:none;fill-rule:nonzero;fill:#e4e9eb;fill-opacity:1"/></svg>